<mxfile host="app.diagrams.net" modified="2023-12-03T16:10:56.154Z" agent="Mozilla/5.0 (Windows NT 10.0; Win64; x64) AppleWebKit/537.36 (KHTML, like Gecko) Chrome/119.0.0.0 Safari/537.36 Edg/119.0.0.0" etag="AxfTnD8l9_U3fq2nnU-J" version="22.1.5" type="device">
  <diagram name="Page-1" id="cv0P8EkWa67ZonXE93BK">
    <mxGraphModel dx="1242" dy="1669" grid="1" gridSize="10" guides="1" tooltips="1" connect="1" arrows="1" fold="1" page="1" pageScale="1" pageWidth="850" pageHeight="1100" math="0" shadow="0">
      <root>
        <mxCell id="0" />
        <mxCell id="1" parent="0" />
        <mxCell id="kvJbIA6RbxCdod5Wy-P9-3" value="" style="edgeStyle=orthogonalEdgeStyle;rounded=0;orthogonalLoop=1;jettySize=auto;html=1;" edge="1" parent="1" source="kvJbIA6RbxCdod5Wy-P9-1">
          <mxGeometry relative="1" as="geometry">
            <mxPoint x="220" y="230" as="targetPoint" />
          </mxGeometry>
        </mxCell>
        <mxCell id="kvJbIA6RbxCdod5Wy-P9-1" value="start" style="ellipse;whiteSpace=wrap;html=1;" vertex="1" parent="1">
          <mxGeometry x="160" y="60" width="120" height="80" as="geometry" />
        </mxCell>
        <mxCell id="kvJbIA6RbxCdod5Wy-P9-6" value="" style="edgeStyle=orthogonalEdgeStyle;rounded=0;orthogonalLoop=1;jettySize=auto;html=1;" edge="1" parent="1" source="kvJbIA6RbxCdod5Wy-P9-4" target="kvJbIA6RbxCdod5Wy-P9-5">
          <mxGeometry relative="1" as="geometry" />
        </mxCell>
        <mxCell id="kvJbIA6RbxCdod5Wy-P9-4" value="struct&amp;nbsp;" style="shape=parallelogram;perimeter=parallelogramPerimeter;whiteSpace=wrap;html=1;fixedSize=1;" vertex="1" parent="1">
          <mxGeometry x="120" y="-40" width="120" height="60" as="geometry" />
        </mxCell>
        <mxCell id="kvJbIA6RbxCdod5Wy-P9-5" value="&lt;div&gt;char name[100];&lt;/div&gt;&lt;div&gt;int age;&lt;span style=&quot;&quot;&gt;&lt;/span&gt;&lt;/div&gt;&lt;div&gt;&lt;span style=&quot;&quot;&gt;&lt;span style=&quot;&quot;&gt;&lt;span style=&quot;white-space: pre;&quot;&gt;&amp;nbsp;&amp;nbsp;&amp;nbsp;&amp;nbsp;&lt;/span&gt;&lt;span style=&quot;white-space: pre;&quot;&gt;&amp;nbsp;&amp;nbsp;&amp;nbsp;&amp;nbsp;&lt;/span&gt;&lt;/span&gt;char phoneNumbers[100];&lt;/span&gt;&lt;/div&gt;&lt;div&gt;&lt;span style=&quot;&quot;&gt;&lt;span style=&quot;&quot;&gt;&lt;span style=&quot;white-space: pre;&quot;&gt;&amp;nbsp;&amp;nbsp;&amp;nbsp;&amp;nbsp;&lt;/span&gt;&lt;span style=&quot;white-space: pre;&quot;&gt;&amp;nbsp;&amp;nbsp;&amp;nbsp;&amp;nbsp;&lt;/span&gt;&lt;/span&gt;char email[100];&lt;/span&gt;&lt;/div&gt;" style="whiteSpace=wrap;html=1;" vertex="1" parent="1">
          <mxGeometry x="320" y="-40" width="120" height="60" as="geometry" />
        </mxCell>
        <mxCell id="kvJbIA6RbxCdod5Wy-P9-9" value="" style="edgeStyle=orthogonalEdgeStyle;rounded=0;orthogonalLoop=1;jettySize=auto;html=1;" edge="1" parent="1" source="kvJbIA6RbxCdod5Wy-P9-7" target="kvJbIA6RbxCdod5Wy-P9-8">
          <mxGeometry relative="1" as="geometry" />
        </mxCell>
        <mxCell id="kvJbIA6RbxCdod5Wy-P9-7" value="person1.name&lt;br&gt;person1.age&lt;br&gt;person1.phoneNumbers&lt;br&gt;person1.email" style="shape=parallelogram;perimeter=parallelogramPerimeter;whiteSpace=wrap;html=1;fixedSize=1;" vertex="1" parent="1">
          <mxGeometry x="160" y="230" width="120" height="60" as="geometry" />
        </mxCell>
        <mxCell id="kvJbIA6RbxCdod5Wy-P9-11" style="edgeStyle=orthogonalEdgeStyle;rounded=0;orthogonalLoop=1;jettySize=auto;html=1;exitX=0.5;exitY=1;exitDx=0;exitDy=0;entryX=0.5;entryY=0;entryDx=0;entryDy=0;" edge="1" parent="1" source="kvJbIA6RbxCdod5Wy-P9-8" target="kvJbIA6RbxCdod5Wy-P9-10">
          <mxGeometry relative="1" as="geometry" />
        </mxCell>
        <mxCell id="kvJbIA6RbxCdod5Wy-P9-8" value="tên&lt;br&gt;tuổi&lt;br&gt;số điện thoai&lt;br&gt;email" style="whiteSpace=wrap;html=1;" vertex="1" parent="1">
          <mxGeometry x="160" y="370" width="120" height="60" as="geometry" />
        </mxCell>
        <mxCell id="kvJbIA6RbxCdod5Wy-P9-10" value="end" style="ellipse;whiteSpace=wrap;html=1;" vertex="1" parent="1">
          <mxGeometry x="160" y="470" width="120" height="90" as="geometry" />
        </mxCell>
      </root>
    </mxGraphModel>
  </diagram>
</mxfile>
